<svg width="100" height="127" viewBox="0 0 100 127" fill="none" xmlns="http://www.w3.org/2000/svg">
<path fill-rule="evenodd" clip-rule="evenodd" d="M66.8334 100.213C48.0534 100.213 50.1 71.2667 69.3267 71.2667C87.0534 71.2667 87.16 100.213 66.8334 100.213ZM68.5867 80.0933C61.1334 80.0933 60.5867 92.1667 67.92 92.1667C75.7667 92.1667 75.46 80.0933 68.5867 80.0933ZM23.4134 95.54L68.2534 40.7733L76.44 47.4L30 100.44L23.4134 95.54ZM30.6667 69.38C11.88 69.38 13.9267 40.4333 33.1534 40.4333C50.9134 40.4333 51.02 69.38 30.6667 69.38ZM32.42 49.26C24.9667 49.26 24.42 61.3333 31.7134 61.3333C39.62 61.3333 39.3334 49.26 32.4467 49.26H32.42Z" fill="#EB0000"/>
</svg>
