<?xml version="1.0" encoding="UTF-8"?>
<!DOCTYPE svg PUBLIC "-//W3C//DTD SVG 1.1//EN" "http://www.w3.org/Graphics/SVG/1.1/DTD/svg11.dtd">
<svg xmlns="http://www.w3.org/2000/svg" version="1.1" width="512px" height="512px" style="shape-rendering:geometricPrecision; text-rendering:geometricPrecision; image-rendering:optimizeQuality; fill-rule:evenodd; clip-rule:evenodd" xmlns:xlink="http://www.w3.org/1999/xlink">
<g><path style="opacity:0.945" fill="#000000" d="M 90.5,14.5 C 156.168,14.3333 221.834,14.5 287.5,15C 289.725,15.5611 291.725,16.5611 293.5,18C 315.037,41.2015 336.203,64.7015 357,88.5C 357.5,147.499 357.667,206.499 357.5,265.5C 350.5,265.5 343.5,265.5 336.5,265.5C 336.667,212.166 336.5,158.832 336,105.5C 335.097,104.299 333.931,103.465 332.5,103C 315.167,102.667 297.833,102.333 280.5,102C 276.982,99.8138 275.148,96.6471 275,92.5C 274.667,74.1667 274.333,55.8333 274,37.5C 273.5,37 273,36.5 272.5,36C 212.833,35.3333 153.167,35.3333 93.5,36C 92.6678,144.764 92.1678,253.597 92,362.5C 87.4341,373.3 82.1008,383.634 76,393.5C 74.7387,393.241 73.7387,392.574 73,391.5C 71.4375,325.417 70.6042,259.25 70.5,193C 70.7558,139.498 71.2558,85.9977 72,32.5C 74.7807,22.8842 80.9474,16.8842 90.5,14.5 Z M 295.5,52.5 C 304.967,62.1353 314.3,71.9686 323.5,82C 314.173,82.4998 304.839,82.6665 295.5,82.5C 295.5,72.5 295.5,62.5 295.5,52.5 Z"/></g>
<g><path style="opacity:0.973" fill="#000000" d="M 118.5,122.5 C 182.501,122.333 246.501,122.5 310.5,123C 318.374,127.051 320.541,133.218 317,141.5C 315.337,143.917 313.171,145.75 310.5,147C 246.5,147.667 182.5,147.667 118.5,147C 110.122,142.047 108.289,135.214 113,126.5C 115.015,125.303 116.849,123.97 118.5,122.5 Z"/></g>
<g><path style="opacity:0.988" fill="#000000" d="M 511.5,290.5 C 511.5,294.5 511.5,298.5 511.5,302.5C 480.377,361.407 449.211,420.407 418,479.5C 412.372,487.563 404.872,493.063 395.5,496C 271.5,496.667 147.5,496.667 23.5,496C 11.1735,493.5 3.17352,486.333 -0.5,474.5C -0.5,375.833 -0.5,277.167 -0.5,178.5C 3.87124,164.974 13.2046,157.474 27.5,156C 36.8274,155.5 46.1607,155.334 55.5,155.5C 55.5,164.167 55.5,172.833 55.5,181.5C 48.4921,181.334 41.4921,181.5 34.5,182C 29.3333,183.167 26.1667,186.333 25,191.5C 24.3333,281.167 24.3333,370.833 25,460.5C 26.0095,464.843 28.5095,468.01 32.5,470C 40.1883,470.831 47.855,470.665 55.5,469.5C 84.8216,409.523 114.655,349.857 145,290.5C 149.722,284.442 155.889,280.942 163.5,280C 233.833,279.5 304.166,279.333 374.5,279.5C 374.5,256.5 374.5,233.5 374.5,210.5C 385.775,211.259 393.609,216.925 398,227.5C 399.458,244.764 399.958,262.097 399.5,279.5C 431.835,279.333 464.168,279.5 496.5,280C 503.609,280.626 508.609,284.126 511.5,290.5 Z"/></g>
<g><path style="opacity:0.972" fill="#000000" d="M 119.5,193.5 C 182.834,193.333 246.168,193.5 309.5,194C 317.499,197.167 320.333,203.001 318,211.5C 316.5,214.333 314.333,216.5 311.5,218C 246.833,218.667 182.167,218.667 117.5,218C 110.451,213.513 108.617,207.346 112,199.5C 114.109,196.878 116.609,194.878 119.5,193.5 Z"/></g>
<g><path style="opacity:0.91" fill="#000000" d="M 118.5,265.5 C 130.505,265.333 142.505,265.5 154.5,266C 144.38,268.789 136.547,274.623 131,283.5C 129.589,285.65 128.755,287.984 128.5,290.5C 112.601,291.361 107.435,284.361 113,269.5C 115.015,268.303 116.849,266.97 118.5,265.5 Z"/></g>
</svg>
