<svg id="Слой_1" data-name="Слой 1" xmlns="http://www.w3.org/2000/svg" viewBox="0 0 150 190"><defs><style>.cls-1{fill-rule:evenodd;}</style></defs><title>Монтажная область 11</title><path class="cls-1" d="M107.15,96.37l2.94,13.44,19.06,1.53.06,21.12-10.37,3.78c-.53-7.31-5.55-14.4-15.09-14.4-9.84,0-15.08,7.85-14.92,15.56H65.29c0-5.57-2.69-11.19-7.93-13.9l29.58-.73.64-35.28,28.1.67L120.27,96ZM23,86.29c-.13-4.18.69-8.89,8.46-8.53s36.6.29,42,.29S82,81,82,88.46c0,11.15.34,30.89.34,30.89l-58.51-.84S23.37,98.49,23,86.29Zm19.33,37.59a14.87,14.87,0,0,0-6.94,10.81l-12.91-2.52,1.3-7.83Zm7.86,1.72c14.76,0,15.13,22.73,1,22.73C34.49,148.33,35.72,125.6,50.2,125.6Zm.47,16.11c5.88,0,5.72-9.48-.43-9.48S43.7,141.71,50.67,141.71Zm53.12-16.11c14.76,0,15.14,22.73,1,22.73C88.08,148.33,89.31,125.6,103.79,125.6Zm.47,16.11c5.88,0,5.73-9.48-.42-9.48S97.29,141.71,104.26,141.71Z"/></svg>