<?xml version="1.0" encoding="UTF-8"?>
<!DOCTYPE svg PUBLIC "-//W3C//DTD SVG 1.1//EN" "http://www.w3.org/Graphics/SVG/1.1/DTD/svg11.dtd">
<svg xmlns="http://www.w3.org/2000/svg" version="1.1" width="512px" height="512px" style="shape-rendering:geometricPrecision; text-rendering:geometricPrecision; image-rendering:optimizeQuality; fill-rule:evenodd; clip-rule:evenodd" xmlns:xlink="http://www.w3.org/1999/xlink">
<g><path style="opacity:0.979" fill="#000000" d="M 233.5,-0.5 C 248.167,-0.5 262.833,-0.5 277.5,-0.5C 377.766,12.0408 449.266,64.0408 492,155.5C 502.296,180.684 508.796,206.684 511.5,233.5C 511.5,248.167 511.5,262.833 511.5,277.5C 498.959,377.766 446.959,449.266 355.5,492C 330.316,502.296 304.316,508.796 277.5,511.5C 262.833,511.5 248.167,511.5 233.5,511.5C 133.234,498.959 61.734,446.959 19,355.5C 8.70393,330.316 2.20393,304.316 -0.5,277.5C -0.5,262.833 -0.5,248.167 -0.5,233.5C 12.0408,133.234 64.0408,61.734 155.5,19C 180.684,8.70393 206.684,2.20393 233.5,-0.5 Z M 241.5,54.5 C 316.729,52.3678 376.563,81.3678 421,141.5C 457.332,196.816 465.666,256.149 446,319.5C 421.086,386.08 374.586,429.58 306.5,450C 226.949,467.59 159.449,446.757 104,387.5C 56.285,329.258 43.285,263.925 65,191.5C 88.8157,127.684 132.982,84.851 197.5,63C 212.076,58.9631 226.743,56.1298 241.5,54.5 Z"/></g>
<g><path style="opacity:0.976" fill="#000000" d="M 249.5,87.5 C 262.393,87.2437 270.56,93.2437 274,105.5C 274.5,152.832 274.667,200.165 274.5,247.5C 314.835,247.333 355.168,247.5 395.5,248C 411.507,256.359 414.674,268.192 405,283.5C 401.223,287.138 396.723,289.305 391.5,290C 344.5,290.667 297.5,290.667 250.5,290C 240.978,288.81 234.812,283.643 232,274.5C 231.333,217.5 231.333,160.5 232,103.5C 234.886,94.7742 240.719,89.4408 249.5,87.5 Z"/></g>
</svg>
