<?xml version="1.0" standalone="no"?>
<!DOCTYPE svg PUBLIC "-//W3C//DTD SVG 20010904//EN"
 "http://www.w3.org/TR/2001/REC-SVG-20010904/DTD/svg10.dtd">
<svg version="1.0" xmlns="http://www.w3.org/2000/svg"
 width="3250.000000pt" height="3000.000000pt" viewBox="0 0 3250.000000 3000.000000"
 preserveAspectRatio="xMidYMid meet">

<g transform="translate(0.000000,3000.000000) scale(0.100000,-0.100000)"
fill="#000000" stroke="none">
<path d="M7400 29990 c-61 -4 -70 -7 -47 -14 15 -4 27 -14 27 -21 0 -22 -105
-38 -235 -37 -81 1 -140 -4 -180 -14 -33 -9 -152 -22 -265 -29 -125 -8 -238
-21 -290 -33 -47 -11 -111 -23 -143 -27 -32 -3 -90 -15 -129 -26 -39 -11 -119
-27 -177 -35 -122 -17 -150 -24 -286 -69 -55 -18 -134 -39 -175 -45 -41 -7
-133 -34 -205 -60 -71 -26 -155 -53 -185 -60 -30 -7 -105 -35 -166 -61 -61
-27 -146 -58 -188 -69 -43 -12 -103 -37 -134 -56 -32 -18 -90 -45 -129 -58
-40 -14 -93 -39 -119 -57 -26 -17 -79 -44 -119 -59 -39 -16 -100 -47 -135 -69
-35 -23 -67 -41 -71 -41 -25 0 -123 -45 -156 -71 -21 -17 -69 -47 -106 -65
-37 -19 -89 -50 -115 -68 -26 -18 -67 -43 -92 -55 -25 -13 -68 -40 -95 -60
-28 -21 -64 -45 -80 -54 -17 -8 -53 -35 -81 -59 -29 -24 -74 -55 -100 -71 -27
-15 -83 -55 -126 -90 -42 -34 -102 -82 -134 -107 -31 -25 -78 -63 -103 -86
-25 -22 -75 -63 -111 -90 -78 -59 -594 -566 -691 -679 -38 -44 -108 -129 -157
-189 -48 -60 -108 -133 -134 -162 -26 -29 -55 -66 -64 -81 -10 -15 -37 -50
-59 -78 -23 -27 -54 -69 -69 -93 -15 -24 -43 -64 -62 -89 -19 -25 -45 -64 -56
-87 -11 -22 -38 -61 -58 -86 -21 -25 -50 -70 -65 -100 -15 -30 -43 -73 -61
-96 -19 -22 -45 -67 -60 -100 -14 -32 -42 -80 -61 -107 -19 -26 -44 -71 -55
-100 -11 -28 -35 -73 -54 -99 -19 -25 -51 -82 -71 -125 -20 -43 -46 -91 -58
-108 -24 -33 -36 -62 -60 -149 -9 -33 -34 -85 -56 -115 -23 -32 -49 -85 -61
-126 -11 -38 -35 -97 -53 -131 -18 -33 -50 -114 -70 -180 -21 -65 -48 -140
-61 -166 -13 -26 -37 -99 -53 -162 -16 -63 -45 -149 -65 -191 -23 -51 -42
-114 -56 -190 -11 -63 -33 -147 -49 -187 -43 -109 -59 -174 -71 -278 -15 -135
-27 -197 -66 -350 -34 -132 -42 -191 -64 -493 -5 -70 -12 -132 -16 -138 -3 -6
-10 -81 -14 -167 -10 -189 -28 -244 -66 -194 -11 14 -13 -61 -14 -457 0 -418
2 -472 15 -461 8 7 21 10 29 7 23 -9 39 -111 32 -207 -5 -63 -3 -99 9 -140 8
-30 20 -109 25 -175 25 -318 29 -344 73 -520 25 -99 51 -220 57 -270 13 -108
13 -108 55 -215 19 -47 41 -123 50 -170 25 -137 45 -202 76 -256 16 -28 38
-87 49 -131 20 -82 30 -109 79 -216 16 -34 40 -97 54 -140 15 -43 42 -106 61
-140 19 -34 48 -94 63 -132 16 -39 43 -91 60 -115 16 -25 42 -78 56 -118 14
-40 39 -90 55 -110 16 -20 46 -71 67 -112 21 -41 49 -88 62 -104 13 -16 37
-55 54 -87 16 -32 42 -73 57 -91 16 -18 43 -58 60 -89 18 -31 39 -63 48 -70 9
-7 34 -40 57 -74 49 -73 148 -201 202 -264 23 -25 54 -64 70 -86 88 -119 689
-700 789 -762 23 -14 64 -43 91 -65 91 -71 176 -132 239 -173 34 -22 82 -55
106 -74 25 -18 61 -40 80 -48 19 -8 61 -34 95 -58 33 -23 82 -52 108 -64 27
-11 71 -37 97 -56 27 -20 73 -44 103 -54 66 -23 112 -46 155 -79 17 -13 68
-35 111 -47 44 -12 104 -38 134 -58 31 -21 88 -45 133 -58 44 -12 115 -38 159
-59 44 -21 119 -47 167 -59 48 -11 128 -36 178 -56 50 -20 132 -45 183 -56 51
-11 173 -40 272 -64 99 -25 261 -56 360 -70 179 -25 280 -43 405 -70 36 -8 95
-15 131 -15 36 0 110 -7 165 -15 142 -21 1312 -21 1489 0 66 8 147 15 179 15
33 0 110 9 170 20 225 41 284 51 426 65 88 10 217 33 330 60 102 24 234 51
294 60 60 9 134 25 165 36 123 46 230 78 311 93 49 10 121 33 170 56 47 22
126 49 175 60 57 13 110 33 145 54 30 18 87 41 125 51 39 9 102 34 142 56 40
21 111 53 158 70 47 17 102 43 122 57 21 14 83 45 138 69 54 24 106 50 115 58
9 8 51 30 95 50 44 20 100 52 126 71 26 19 71 45 100 58 30 13 72 38 94 56 22
18 67 46 100 62 33 17 78 45 100 63 22 17 60 44 85 60 25 15 59 40 77 56 17
15 60 44 95 64 35 21 82 54 104 74 23 20 75 63 115 96 40 33 95 80 123 105 28
25 78 66 111 90 77 57 545 519 593 585 20 27 65 82 102 120 36 39 87 99 114
135 27 36 68 86 90 111 56 63 134 169 174 237 18 31 44 68 57 82 12 14 40 52
61 85 20 33 52 77 69 98 18 21 40 59 50 85 10 26 35 70 55 98 21 27 52 79 70
115 18 35 46 83 62 107 16 23 41 68 55 100 14 31 40 78 59 104 19 26 45 78 58
116 13 38 40 93 59 123 20 30 45 86 56 124 11 39 36 97 56 129 19 32 51 111
71 175 20 64 51 145 70 181 18 36 42 104 53 152 12 48 38 127 60 175 23 51 46
126 56 178 9 50 36 149 60 220 24 72 46 153 50 180 13 103 48 262 71 330 14
39 31 126 40 195 8 69 19 158 24 198 6 40 10 99 10 130 0 31 7 79 15 106 8 27
15 79 15 116 0 38 9 112 20 165 19 91 20 136 20 679 0 478 -3 592 -15 646 -8
36 -19 113 -24 172 -5 59 -12 112 -16 118 -3 5 -10 60 -16 122 -24 291 -37
384 -67 473 -30 91 -48 172 -78 365 -10 67 -30 139 -54 200 -21 52 -45 133
-53 180 -9 53 -30 120 -55 175 -23 50 -50 130 -62 178 -11 48 -37 122 -59 165
-21 42 -49 114 -61 159 -12 47 -40 113 -65 155 -24 40 -51 99 -60 130 -9 31
-34 85 -57 120 -22 35 -49 86 -58 114 -22 62 -46 109 -76 149 -12 17 -32 53
-44 80 -12 28 -39 73 -60 100 -21 28 -51 79 -67 115 -17 36 -47 85 -67 109
-21 25 -49 65 -62 90 -23 44 -82 132 -141 214 -107 147 -134 183 -184 244 -31
37 -64 75 -74 83 -9 8 -39 46 -65 85 -47 68 -488 513 -630 636 -90 77 -218
180 -260 209 -19 13 -55 41 -80 63 -25 21 -58 46 -75 54 -16 8 -55 34 -85 58
-30 23 -68 49 -85 58 -16 8 -61 38 -98 66 -38 27 -78 53 -90 57 -12 3 -47 24
-78 44 -31 21 -90 55 -130 75 -41 20 -89 48 -107 61 -18 14 -70 40 -116 58
-46 19 -104 47 -128 65 -24 17 -77 41 -118 52 -41 12 -101 36 -132 55 -31 18
-103 47 -160 64 -57 18 -137 47 -178 65 -41 19 -124 45 -184 60 -60 14 -148
41 -195 59 -47 18 -93 36 -103 39 -9 3 -83 15 -165 27 -81 12 -186 34 -233 50
-108 36 -165 47 -265 54 -213 14 -344 28 -390 41 -32 9 -92 14 -170 13 -95 -1
-128 2 -160 16 l-40 17 22 18 c21 18 20 18 -75 24 -115 8 -655 6 -762 -3z
m245 -4424 c33 -8 96 -17 139 -20 43 -4 111 -18 150 -31 39 -13 121 -30 181
-39 91 -13 125 -23 200 -60 50 -24 122 -54 161 -65 39 -11 94 -36 121 -55 27
-18 74 -46 104 -61 30 -15 81 -48 114 -72 33 -25 75 -53 95 -63 19 -10 49 -33
65 -50 17 -18 71 -66 122 -107 51 -40 107 -93 124 -116 18 -23 53 -65 78 -94
83 -93 127 -147 166 -203 21 -30 49 -68 62 -84 13 -16 38 -59 54 -95 16 -36
42 -82 58 -101 36 -45 48 -69 72 -138 11 -32 36 -83 55 -115 23 -37 45 -93 59
-151 13 -51 36 -119 53 -152 34 -68 54 -151 77 -319 9 -66 25 -144 35 -173 11
-29 22 -74 25 -100 4 -26 13 -94 22 -152 20 -134 13 -617 -10 -720 -8 -36 -18
-96 -22 -135 -4 -38 -16 -97 -26 -130 -11 -33 -26 -105 -34 -160 -17 -110 -36
-176 -71 -246 -13 -26 -35 -93 -49 -150 -16 -62 -42 -132 -65 -174 -21 -38
-48 -95 -60 -127 -11 -31 -35 -73 -52 -95 -17 -21 -43 -66 -59 -101 -16 -35
-46 -84 -67 -110 -21 -26 -48 -63 -59 -82 -70 -124 -368 -456 -463 -516 -25
-16 -66 -46 -90 -66 -81 -68 -213 -161 -258 -180 -25 -11 -71 -37 -104 -58
-33 -22 -76 -44 -96 -51 -20 -6 -78 -33 -129 -60 -65 -35 -124 -57 -200 -75
-59 -14 -145 -41 -190 -60 -51 -21 -112 -37 -165 -43 -45 -6 -126 -16 -178
-22 -52 -7 -250 -15 -440 -18 -304 -6 -356 -5 -435 11 -49 9 -112 17 -139 18
-63 0 -212 35 -295 70 -36 15 -91 33 -121 40 -66 16 -132 43 -171 71 -15 11
-61 33 -100 50 -40 16 -102 49 -138 73 -36 23 -87 56 -113 72 -197 121 -475
402 -613 619 -22 34 -54 78 -71 97 -17 19 -43 66 -58 103 -15 38 -40 87 -57
109 -16 23 -42 81 -59 130 -16 49 -43 109 -58 135 -37 59 -47 87 -66 187 -9
44 -34 131 -56 193 -37 102 -42 130 -55 285 -8 94 -19 198 -25 231 -16 95 -12
514 5 620 8 50 15 119 15 155 0 104 27 251 68 382 22 68 49 163 60 211 12 49
37 123 56 165 19 42 44 113 56 157 13 47 36 101 56 131 19 28 46 79 60 115 14
35 41 84 59 109 18 25 45 70 60 100 15 30 42 73 60 95 18 22 48 65 66 95 18
30 53 80 77 110 89 111 416 433 485 477 23 15 58 42 78 59 20 17 58 44 85 59
27 15 78 47 114 71 36 24 91 52 122 64 31 11 74 33 95 47 51 35 108 60 168 73
28 6 93 31 145 55 74 34 118 47 200 59 58 9 155 27 215 41 241 55 594 80 720
51z"/>
<path d="M25274 29737 c-12 -7 -52 -50 -90 -96 -38 -47 -94 -112 -124 -146
-30 -34 -91 -108 -135 -165 -44 -57 -96 -122 -116 -144 -20 -23 -50 -62 -67
-88 -18 -26 -40 -53 -50 -60 -16 -12 -95 -106 -162 -193 -14 -18 -70 -86 -125
-151 -55 -65 -113 -136 -130 -159 -48 -66 -96 -124 -156 -189 -30 -34 -71 -82
-89 -108 -18 -27 -36 -48 -40 -48 -3 0 -24 -24 -45 -52 -22 -29 -85 -108 -140
-176 -55 -69 -110 -138 -123 -156 -12 -17 -41 -51 -65 -76 -23 -25 -80 -92
-127 -149 -47 -56 -104 -126 -128 -154 -24 -29 -71 -88 -105 -131 -34 -44 -80
-100 -103 -125 -22 -25 -51 -62 -64 -81 -24 -35 -80 -101 -174 -206 -27 -30
-63 -74 -80 -98 -37 -53 -130 -170 -229 -288 -39 -48 -115 -140 -168 -205 -53
-65 -104 -125 -114 -133 -10 -8 -42 -46 -71 -85 -30 -38 -83 -106 -119 -150
-35 -44 -84 -105 -107 -135 -23 -30 -65 -80 -93 -111 -49 -54 -82 -93 -245
-294 -44 -55 -101 -125 -126 -155 -25 -30 -68 -84 -97 -119 -29 -36 -72 -88
-97 -115 -25 -28 -65 -76 -88 -106 -23 -30 -71 -89 -107 -130 -36 -41 -87
-106 -114 -145 -27 -38 -59 -79 -71 -90 -12 -11 -40 -46 -61 -77 -22 -32 -48
-62 -59 -68 -11 -6 -33 -29 -49 -53 -16 -23 -45 -59 -64 -79 -20 -20 -44 -49
-53 -65 -25 -38 -178 -226 -200 -244 -9 -8 -34 -37 -55 -65 -20 -28 -44 -57
-51 -65 -8 -8 -27 -32 -43 -54 -16 -22 -50 -63 -75 -92 -139 -158 -250 -294
-294 -360 -19 -28 -56 -76 -83 -106 -26 -30 -77 -89 -113 -132 -36 -43 -83
-99 -105 -125 -22 -25 -70 -84 -107 -131 -124 -154 -148 -184 -204 -249 -30
-36 -74 -90 -96 -120 -42 -55 -103 -128 -189 -224 -25 -28 -68 -79 -95 -114
-27 -35 -75 -96 -107 -135 -32 -40 -81 -102 -109 -139 -28 -38 -54 -68 -58
-68 -7 0 -85 -94 -170 -205 -14 -18 -70 -86 -125 -151 -55 -65 -113 -136 -130
-159 -48 -66 -96 -124 -156 -189 -30 -34 -66 -77 -80 -96 -13 -19 -37 -48 -54
-65 -16 -16 -45 -50 -63 -75 -51 -70 -198 -253 -339 -420 -25 -30 -62 -75 -82
-100 -20 -24 -58 -68 -85 -98 -27 -29 -63 -72 -80 -96 -17 -24 -67 -87 -111
-140 -44 -54 -100 -123 -125 -155 -25 -32 -65 -82 -90 -110 -25 -29 -67 -78
-95 -110 -27 -32 -81 -100 -120 -151 -38 -51 -92 -118 -120 -150 -91 -102
-149 -173 -185 -220 -56 -76 -145 -184 -165 -200 -10 -8 -42 -46 -71 -85 -29
-38 -83 -106 -119 -150 -36 -44 -86 -107 -111 -140 -25 -33 -60 -74 -77 -90
-18 -17 -62 -69 -99 -115 -37 -47 -109 -136 -160 -198 -51 -62 -118 -144 -148
-181 -30 -38 -82 -101 -115 -141 -33 -39 -77 -92 -98 -118 -68 -84 -151 -183
-193 -231 -22 -25 -59 -73 -81 -106 -22 -33 -51 -69 -63 -80 -12 -11 -36 -40
-53 -65 -17 -25 -49 -63 -71 -86 -51 -52 -125 -138 -156 -184 -25 -37 -145
-183 -255 -310 -36 -41 -79 -95 -97 -120 -17 -25 -54 -71 -82 -103 -28 -32
-76 -86 -106 -121 -53 -61 -118 -143 -214 -271 -25 -33 -75 -94 -111 -135 -36
-41 -80 -94 -98 -116 -17 -23 -66 -81 -107 -129 -41 -48 -102 -123 -135 -166
-33 -42 -94 -117 -135 -166 -42 -48 -86 -104 -100 -123 -26 -38 -117 -145
-165 -194 -30 -31 -116 -139 -188 -238 -37 -52 -89 -113 -182 -217 -48 -53
-145 -172 -190 -232 -11 -15 -54 -66 -95 -114 -41 -48 -94 -113 -118 -144 -80
-104 -137 -174 -192 -236 -74 -83 -163 -191 -200 -240 -16 -22 -59 -76 -95
-120 -35 -44 -91 -114 -124 -155 -32 -42 -66 -82 -75 -89 -9 -8 -54 -61 -99
-119 -45 -58 -102 -129 -127 -157 -52 -60 -153 -181 -202 -242 -91 -115 -123
-153 -176 -216 -31 -38 -79 -94 -107 -126 -27 -32 -92 -111 -143 -177 -51 -65
-122 -153 -157 -194 -36 -41 -84 -100 -107 -130 -57 -75 -114 -144 -170 -204
-25 -28 -66 -77 -90 -108 -23 -31 -68 -89 -99 -130 -31 -40 -67 -82 -79 -93
-12 -11 -40 -46 -61 -77 -22 -31 -47 -63 -57 -70 -10 -7 -29 -29 -42 -48 -14
-19 -47 -60 -75 -91 -27 -31 -81 -96 -120 -145 -38 -49 -90 -112 -115 -139
-25 -28 -60 -71 -77 -96 -18 -24 -62 -78 -98 -119 -35 -41 -90 -106 -120 -145
-30 -38 -87 -106 -125 -150 -39 -44 -92 -111 -119 -150 -27 -38 -59 -79 -71
-90 -12 -11 -36 -40 -53 -65 -17 -25 -47 -61 -67 -81 -48 -49 -131 -147 -160
-189 -13 -19 -67 -86 -119 -149 -53 -63 -111 -135 -130 -160 -19 -25 -50 -64
-70 -87 -20 -22 -65 -76 -101 -119 -36 -44 -81 -95 -100 -114 -43 -45 -143
-173 -210 -268 -27 -40 -56 -76 -63 -80 -7 -4 -40 -41 -73 -81 -32 -40 -79
-97 -104 -127 -136 -163 -171 -205 -228 -279 -35 -44 -76 -94 -92 -111 -16
-16 -41 -47 -57 -67 -15 -20 -48 -63 -73 -95 -44 -57 -107 -131 -178 -207 -37
-39 -75 -87 -164 -207 -55 -75 -143 -181 -214 -258 -27 -31 -59 -68 -70 -82
-46 -62 -185 -232 -268 -328 -26 -31 -74 -89 -105 -129 -103 -135 -111 -146
-164 -204 -101 -113 -144 -164 -176 -208 -17 -25 -63 -83 -101 -130 -39 -47
-94 -116 -124 -155 -29 -38 -63 -79 -76 -90 -12 -11 -59 -67 -104 -124 -44
-58 -101 -128 -126 -157 -119 -138 -197 -233 -285 -347 -24 -32 -66 -83 -92
-113 -26 -30 -70 -81 -98 -113 -27 -31 -77 -92 -110 -135 -72 -95 -115 -148
-195 -241 -33 -38 -81 -97 -107 -130 -63 -80 -117 -146 -178 -215 -27 -31 -86
-103 -130 -160 -44 -57 -98 -124 -121 -149 -22 -25 -55 -68 -73 -94 -18 -27
-39 -51 -46 -53 -7 -3 -28 -26 -46 -52 -19 -26 -56 -72 -84 -103 -27 -31 -87
-103 -133 -160 -45 -57 -103 -129 -128 -159 -25 -30 -68 -84 -97 -119 -29 -36
-72 -88 -97 -115 -25 -28 -65 -76 -88 -106 -23 -30 -71 -89 -107 -130 -36 -41
-83 -100 -104 -131 -22 -31 -56 -71 -75 -90 -66 -62 -85 -142 -45 -193 11 -14
50 -46 87 -71 74 -50 171 -122 317 -235 54 -41 121 -91 150 -110 29 -19 69
-50 89 -67 20 -18 55 -42 77 -54 23 -11 60 -37 82 -58 23 -21 69 -57 102 -80
33 -23 79 -56 102 -74 44 -33 80 -60 191 -140 37 -26 78 -58 92 -71 30 -29
154 -122 230 -172 30 -20 69 -49 85 -64 17 -15 55 -44 85 -64 56 -36 135 -94
224 -163 26 -21 72 -54 102 -74 30 -19 67 -47 82 -61 15 -14 52 -42 82 -61 31
-19 61 -41 68 -49 6 -8 66 -55 133 -104 67 -49 140 -104 163 -122 22 -17 71
-52 108 -77 37 -25 70 -49 73 -55 9 -15 228 -176 265 -195 19 -10 57 -37 83
-61 56 -50 109 -70 161 -60 29 6 50 24 118 103 46 53 110 126 143 162 91 99
232 262 300 346 76 95 210 245 346 388 58 62 122 135 142 162 19 28 48 61 64
75 36 33 102 108 298 340 87 102 165 192 174 200 10 8 33 35 52 60 18 25 73
86 122 136 48 49 103 114 123 142 19 29 38 52 42 52 5 0 45 42 90 92 106 122
385 444 441 511 24 28 89 102 145 164 55 61 155 173 221 248 66 76 161 182
210 237 50 56 107 122 127 147 49 59 172 201 273 313 44 49 104 118 133 154
30 36 84 95 121 132 36 37 77 83 90 102 14 19 63 78 111 130 47 52 101 115
120 140 19 25 62 74 95 110 68 74 218 245 284 323 23 29 79 88 122 133 44 44
94 102 113 128 18 25 71 88 117 138 46 50 102 115 124 144 38 49 151 177 290
329 35 39 74 84 86 100 12 17 66 75 119 130 53 55 110 120 127 145 17 25 61
74 98 110 37 36 85 92 107 125 23 33 80 101 127 150 48 50 101 111 118 136 17
25 48 58 67 73 20 15 54 51 76 81 22 29 77 93 122 142 46 48 97 106 113 128
16 22 65 78 110 125 45 47 97 108 115 135 19 28 65 81 102 118 38 38 91 99
118 137 28 37 66 80 85 94 19 15 53 51 75 81 22 29 77 93 122 142 46 48 97
106 113 128 16 22 66 78 111 125 44 47 95 107 113 133 18 26 73 89 123 140 50
51 104 112 121 136 17 25 44 57 61 72 17 15 63 64 101 110 39 45 97 112 131
148 80 87 224 254 299 346 59 72 142 166 344 390 55 61 114 128 131 149 17 22
48 56 68 76 20 19 77 84 126 143 49 59 92 107 96 107 4 0 29 30 56 67 27 38
65 84 84 103 42 42 135 148 182 207 34 43 147 168 321 355 55 59 109 120 121
136 24 32 244 288 320 373 28 31 107 121 176 199 69 78 170 192 225 253 56 62
112 126 125 143 14 17 93 109 175 203 83 95 166 191 185 214 19 23 82 95 140
159 160 177 328 370 515 588 44 51 112 127 150 169 39 42 92 103 120 136 27
33 69 80 94 105 24 25 63 70 86 100 24 30 73 84 110 120 36 36 80 85 98 110
17 25 72 90 122 145 50 55 109 123 131 151 40 53 186 218 277 314 28 30 66 73
84 96 17 22 72 84 122 136 50 53 103 113 117 134 15 22 65 81 113 133 47 52
104 118 126 147 37 47 124 147 291 329 163 178 253 280 299 337 28 35 86 101
131 148 45 47 96 108 114 135 19 28 64 80 102 118 37 37 90 96 117 132 27 36
61 75 75 86 14 11 63 66 109 122 47 56 106 122 132 147 26 25 58 62 71 82 13
20 63 78 112 130 49 51 103 115 121 141 18 26 63 78 99 115 37 37 90 96 117
132 28 36 65 78 83 94 18 15 71 75 117 131 47 57 96 113 111 124 14 11 49 51
77 88 28 37 86 104 128 148 41 44 89 100 106 125 17 25 77 91 132 148 56 57
101 107 101 113 0 5 43 55 96 112 53 56 113 122 133 147 20 25 54 63 76 85 22
22 72 78 110 124 39 47 84 98 101 115 17 17 48 54 69 81 20 28 78 95 129 149
50 54 102 115 115 135 13 20 52 65 86 101 87 90 242 263 291 324 23 28 74 87
115 131 41 44 90 100 109 125 18 25 75 90 125 145 50 55 106 121 123 146 17
26 46 59 64 74 18 15 48 46 66 69 19 22 97 110 174 194 78 85 153 169 167 187
14 19 94 111 176 205 83 95 170 196 195 226 25 29 88 101 140 159 221 247 319
357 390 441 41 48 95 111 120 139 25 29 79 91 120 140 41 48 125 143 185 211
231 258 389 438 535 609 41 49 111 127 154 174 43 47 103 117 133 154 30 38
61 71 69 74 8 3 36 33 63 67 26 34 86 102 133 152 46 49 91 101 100 115 9 14
60 75 115 135 54 60 111 127 128 149 26 36 101 121 296 335 170 188 249 277
296 336 28 36 87 104 130 152 43 48 94 107 113 132 19 25 57 70 86 100 101
107 239 262 275 308 20 26 74 85 119 132 46 47 104 112 128 145 25 33 80 96
122 140 42 44 94 105 115 135 21 30 52 67 69 81 17 15 58 60 91 100 33 41 96
112 141 159 99 104 124 137 124 162 0 25 -91 121 -160 168 -31 21 -62 46 -70
55 -8 9 -41 35 -75 58 -33 22 -81 59 -106 81 -25 23 -81 70 -123 106 -43 36
-94 79 -114 96 -36 31 -116 93 -257 199 -39 29 -77 60 -85 70 -8 9 -39 34 -70
55 -30 21 -64 48 -75 60 -23 26 -311 260 -495 402 -64 50 -140 113 -215 179
-29 26 -77 65 -106 88 -30 23 -90 71 -134 106 -44 36 -111 89 -150 119 -140
108 -195 152 -279 226 -96 83 -220 184 -279 227 -22 15 -58 43 -80 60 -23 18
-72 56 -109 84 -37 28 -71 56 -75 63 -5 7 -28 27 -53 46 -25 19 -65 53 -90 76
-25 23 -66 57 -91 75 -102 75 -166 125 -209 164 -25 22 -66 55 -90 72 -25 18
-70 54 -100 79 -119 101 -147 124 -208 171 -113 86 -125 93 -146 93 -12 -1
-31 -6 -42 -13z"/>
<path d="M25275 14590 c-33 -4 -125 -8 -205 -9 -83 -1 -173 -8 -210 -16 -36
-8 -90 -14 -121 -15 -31 0 -81 -9 -113 -20 -31 -10 -84 -22 -119 -25 -34 -4
-98 -13 -142 -21 -44 -7 -136 -20 -205 -29 -82 -9 -168 -28 -250 -54 -69 -21
-170 -46 -224 -55 -55 -9 -139 -32 -187 -51 -48 -18 -136 -45 -195 -60 -59
-14 -149 -43 -200 -65 -50 -21 -134 -51 -185 -65 -52 -15 -125 -44 -164 -65
-38 -21 -95 -45 -125 -53 -30 -9 -86 -35 -123 -57 -38 -23 -105 -52 -149 -65
-44 -13 -104 -39 -132 -58 -28 -19 -80 -49 -116 -67 -36 -18 -78 -42 -95 -55
-16 -12 -65 -38 -108 -58 -43 -20 -92 -48 -110 -63 -17 -14 -62 -41 -99 -59
-38 -19 -85 -47 -106 -63 -20 -16 -53 -37 -72 -47 -19 -9 -66 -40 -105 -69
-102 -75 -152 -110 -228 -162 -38 -25 -90 -65 -116 -87 -27 -23 -88 -73 -137
-112 -49 -38 -120 -97 -158 -130 -101 -88 -671 -658 -741 -741 -33 -40 -87
-104 -120 -144 -33 -40 -78 -93 -101 -119 -23 -25 -54 -66 -69 -91 -16 -25
-47 -67 -70 -95 -23 -27 -50 -64 -59 -82 -8 -17 -34 -52 -56 -78 -22 -26 -52
-70 -67 -98 -14 -29 -40 -70 -57 -92 -18 -22 -45 -62 -60 -90 -16 -27 -41 -63
-57 -80 -15 -16 -38 -52 -50 -80 -12 -27 -38 -72 -57 -100 -20 -27 -51 -81
-70 -119 -18 -38 -47 -90 -64 -114 -17 -25 -43 -77 -58 -116 -14 -39 -43 -95
-63 -125 -21 -29 -45 -79 -54 -110 -8 -31 -35 -84 -58 -118 -27 -39 -48 -85
-59 -130 -9 -37 -34 -97 -56 -133 -21 -36 -50 -108 -65 -160 -16 -52 -43 -128
-61 -169 -19 -40 -47 -120 -64 -178 -17 -58 -37 -118 -46 -135 -27 -53 -44
-110 -65 -217 -11 -57 -34 -138 -51 -180 -40 -100 -55 -157 -68 -266 -6 -49
-26 -146 -45 -215 -40 -143 -69 -318 -85 -505 -6 -71 -18 -155 -26 -186 -7
-31 -14 -86 -14 -121 0 -36 -9 -107 -20 -159 -17 -79 -20 -133 -20 -340 0
-191 -4 -263 -16 -318 -15 -66 -15 -80 0 -176 11 -70 16 -169 16 -302 0 -154
4 -221 19 -303 11 -58 25 -145 31 -195 5 -49 14 -115 19 -145 6 -30 14 -117
20 -192 8 -106 22 -181 60 -335 27 -109 55 -234 61 -278 13 -96 22 -127 65
-226 20 -46 42 -122 54 -190 15 -86 29 -131 59 -188 22 -42 49 -114 61 -161
12 -49 36 -109 56 -141 19 -30 44 -91 56 -135 23 -86 49 -143 73 -163 8 -7 32
-55 52 -108 20 -52 47 -107 59 -121 28 -34 48 -74 70 -140 9 -30 30 -69 46
-87 16 -18 41 -59 55 -91 15 -33 46 -84 69 -114 23 -30 51 -73 63 -95 11 -22
34 -58 51 -79 17 -22 45 -64 63 -95 17 -31 43 -69 58 -86 15 -16 40 -50 55
-75 27 -43 55 -78 156 -194 26 -29 64 -78 86 -107 22 -30 57 -72 78 -94 20
-22 71 -80 113 -129 77 -90 182 -195 237 -238 17 -12 86 -72 155 -133 69 -61
151 -130 183 -155 135 -104 185 -142 235 -177 29 -21 81 -58 115 -83 34 -25
85 -58 112 -74 28 -16 71 -44 96 -62 25 -18 67 -42 92 -53 26 -11 70 -38 99
-60 29 -21 85 -51 123 -66 39 -16 88 -41 110 -56 22 -16 76 -43 119 -59 44
-17 98 -44 120 -60 22 -17 78 -42 125 -56 47 -14 119 -43 161 -65 42 -21 116
-47 165 -59 50 -11 118 -34 151 -50 88 -43 134 -58 233 -75 49 -8 140 -33 202
-54 76 -26 170 -48 281 -66 92 -14 198 -35 235 -45 122 -34 303 -59 497 -70
105 -6 243 -18 306 -26 141 -18 1197 -22 1265 -4 22 6 126 15 230 20 299 15
462 29 565 51 158 33 400 77 489 89 46 6 125 23 175 37 119 33 248 65 367 92
53 12 125 36 160 52 35 17 112 41 171 54 62 14 135 39 176 59 38 19 107 44
153 56 46 12 116 39 154 60 39 21 104 48 145 60 41 12 101 37 134 56 32 19 86
44 119 55 70 24 99 38 159 77 24 16 69 39 101 52 31 12 76 36 99 53 23 16 71
44 107 60 36 17 100 54 142 82 84 56 140 91 238 150 70 42 127 83 320 228 138
104 253 194 261 205 3 5 30 27 60 49 30 23 74 59 97 81 24 22 79 71 124 108
116 98 359 341 397 396 18 26 69 84 113 130 45 46 93 101 107 123 14 22 47 63
72 90 60 67 150 179 192 237 18 26 46 64 61 85 50 68 115 167 144 217 15 27
43 67 60 90 18 22 51 77 74 121 23 44 53 93 66 109 13 16 42 63 63 105 21 42
50 91 64 110 14 19 35 63 47 98 11 35 39 90 60 123 22 32 49 86 60 119 12 33
40 90 64 126 26 40 49 91 60 133 9 37 34 99 55 137 21 39 50 112 64 162 15 51
42 122 62 157 20 37 45 106 59 165 14 55 40 140 59 188 19 49 44 140 56 203
12 63 32 141 46 174 39 96 62 193 78 333 9 72 29 183 46 246 40 159 57 272 70
482 6 99 16 216 22 260 6 44 14 112 19 150 4 39 8 300 8 582 1 422 -2 524 -14
584 -9 40 -20 145 -25 233 -17 289 -36 441 -70 553 -25 82 -46 194 -60 322 -8
72 -25 144 -55 235 -24 72 -53 179 -65 239 -12 62 -36 140 -56 184 -20 42 -48
127 -63 188 -15 60 -44 142 -64 180 -20 39 -46 109 -58 157 -13 53 -34 107
-55 139 -18 29 -45 87 -59 129 -14 41 -42 100 -62 130 -20 30 -49 86 -63 125
-14 38 -42 94 -62 122 -20 29 -44 76 -53 105 -10 29 -37 80 -60 113 -23 33
-54 84 -69 113 -25 49 -62 108 -143 229 -18 26 -51 80 -74 118 -23 39 -54 84
-70 100 -16 17 -48 58 -71 92 -24 34 -61 83 -83 111 -22 27 -65 82 -95 123
-30 40 -96 116 -146 169 -49 52 -110 120 -135 150 -60 74 -220 231 -299 295
-36 28 -72 60 -80 69 -21 26 -177 157 -231 193 -25 17 -52 39 -60 49 -8 9 -43
36 -79 59 -36 23 -74 52 -84 63 -10 12 -42 36 -70 54 -28 18 -73 49 -101 69
-27 20 -70 47 -95 59 -25 12 -67 39 -95 60 -27 21 -71 48 -98 59 -26 11 -73
38 -105 59 -31 21 -82 50 -112 64 -30 14 -78 41 -107 61 -29 19 -76 43 -105
52 -29 10 -89 37 -133 60 -44 24 -116 53 -159 64 -44 12 -105 37 -135 56 -31
19 -85 41 -121 50 -36 8 -87 20 -115 26 -27 7 -84 29 -125 50 -53 27 -106 44
-183 58 -59 11 -162 38 -230 60 -85 27 -161 44 -252 55 -71 8 -152 22 -180 30
-27 8 -77 18 -110 21 -33 4 -85 13 -115 20 -99 25 -192 37 -360 47 -206 12
-1194 18 -1275 8z m521 -4391 c230 -26 351 -51 444 -90 41 -18 104 -40 139
-50 35 -10 94 -36 130 -58 36 -21 90 -47 119 -56 29 -9 74 -33 99 -52 26 -20
70 -49 97 -66 28 -16 70 -46 92 -66 23 -20 83 -70 135 -111 139 -112 166 -138
206 -194 20 -28 60 -76 87 -107 87 -95 140 -161 173 -217 18 -29 43 -66 56
-81 13 -16 34 -55 47 -87 13 -33 43 -86 67 -119 39 -53 58 -99 77 -185 3 -14
23 -55 46 -92 30 -50 47 -96 65 -175 14 -59 41 -147 60 -195 27 -68 39 -121
55 -245 30 -230 38 -279 55 -368 21 -113 21 -562 -1 -620 -8 -22 -19 -80 -23
-130 -5 -49 -14 -121 -19 -160 -6 -38 -18 -117 -26 -174 -10 -64 -29 -136 -51
-190 -19 -47 -43 -125 -55 -173 -11 -50 -39 -125 -64 -175 -24 -48 -52 -113
-61 -144 -8 -31 -33 -81 -54 -110 -21 -30 -52 -81 -69 -115 -17 -34 -42 -74
-55 -90 -13 -16 -36 -53 -51 -82 -15 -29 -41 -69 -60 -90 -18 -20 -46 -55 -62
-77 -88 -121 -263 -304 -385 -402 -35 -29 -89 -72 -119 -97 -30 -25 -84 -62
-120 -82 -36 -21 -82 -50 -102 -66 -20 -16 -68 -42 -108 -58 -39 -16 -96 -45
-128 -64 -31 -19 -84 -42 -117 -51 -33 -9 -100 -36 -150 -60 -80 -39 -106 -47
-230 -65 -77 -11 -171 -31 -210 -44 -119 -41 -240 -51 -595 -51 -296 0 -333 2
-420 22 -52 12 -147 33 -210 47 -63 15 -144 33 -180 41 -36 8 -94 30 -130 49
-36 18 -90 41 -120 49 -30 9 -82 33 -115 53 -33 20 -91 52 -130 71 -38 19 -88
50 -110 68 -22 17 -54 39 -71 48 -71 37 -275 221 -427 387 -106 116 -209 259
-259 360 -17 36 -49 90 -70 122 -22 31 -52 94 -67 140 -16 46 -43 106 -60 134
-21 35 -39 87 -55 160 -14 60 -38 138 -54 174 -35 79 -49 136 -62 260 -6 52
-15 122 -20 155 -6 33 -10 90 -10 128 0 37 -9 109 -21 160 -27 119 -30 278 -6
362 10 33 20 101 23 150 3 50 12 135 19 190 8 55 19 143 25 195 7 56 28 142
50 210 22 63 44 142 50 175 17 89 29 124 66 185 18 30 42 88 54 127 12 40 40
101 63 135 22 35 53 96 68 136 15 40 38 87 52 105 13 18 36 56 51 85 15 30 44
73 65 95 21 23 50 62 65 86 110 175 445 510 626 626 25 16 63 43 85 61 22 17
60 41 85 54 25 13 74 42 108 66 35 24 94 53 130 64 37 11 94 36 127 56 39 23
98 46 170 65 60 15 142 41 180 58 78 33 150 46 340 61 72 6 157 15 190 19 119
16 386 12 571 -10z"/>
</g>
</svg>
