<svg width="61" height="58" viewBox="0 0 61 58" fill="none" xmlns="http://www.w3.org/2000/svg">
<path fill-rule="evenodd" clip-rule="evenodd" d="M52.82 14.1867L53.3733 8.56L29.7467 25.6133L22.4133 19.6133L3.20667 35.0467L0 30.7533L22.6 13.62L30.4467 19.8L50.4467 5.36L44.9333 4.52L46.1533 0L58.2333 1.90667L57.1467 14.6667L52.82 14.1867ZM16.26 57.9133L1.32 58L0.82 41.3333L16.1533 40.22L16.26 57.9133ZM38.26 57.7933L23.3 57.8733L22.4267 32.6067L38.1533 31.54L38.26 57.7933ZM59.8267 57.68L44.6733 57.76L44.3467 20.3333L60.3067 19.18L59.8267 57.68Z" fill="#2900CB"/>
</svg>
