<svg id="Слой_1" data-name="Слой 1" xmlns="http://www.w3.org/2000/svg" viewBox="0 0 150 190"><defs><style>.cls-1{fill-rule:evenodd;}</style></defs><title>Монтажная область 11</title><path class="cls-1" d="M106.3,138.05c.08,6.11-3.29,8.89-10.56,9.17-16.56.66-35.57-.1-41.76-.28-7.44-.22-10.79-4.29-10.7-10.74s1.2-66.39,1.2-66.39,25.86-.51,41.35-.72c3.89,0,8.28,1.88,8.53,8,.39,9.42.41,44.35.55,52.4.08,4.41-2.51,7.72-8.11,7.85-11.68.28-28.48-.24-37.38-.57.64,3,2.59,4.19,6.82,4.19,5.78,0,44-.12,44-.12l.4-55.45-2.24-4.51.2-4.89a7.06,7.06,0,0,0,1.13.25c3.48.4,6.59,2.14,6.85,8.3C107,94,106.18,128.9,106.3,138.05ZM83.94,101.47l0-5.64-29.68-.17,0,5.64ZM74.19,88.94l0-5.64-19.46-.39-.94,5.77Z"/></svg>