<svg width="100" height="127" viewBox="0 0 100 127" fill="none" xmlns="http://www.w3.org/2000/svg">
<path fill-rule="evenodd" clip-rule="evenodd" d="M69.76 75.5898C69.76 84.5753 64.6733 90.5656 55.9066 92.34L55.84 99.1575L46.94 99.3043L46.8266 92.5868C40.7 91.5062 33.6267 87.7305 30 84.0416L34.0867 76.1434C37.1867 78.1447 44.3267 81.8603 48.84 81.8403C53.5933 81.8403 56.6133 80.4527 56.6133 76.6638C56.6133 72.8748 50.8466 69.7262 45.28 66.5576C34.94 60.6673 33.2133 55.9778 33.3933 49.774C33.5733 43.5702 38.8333 37.86 45.88 35.6386L45.7466 27.2268L56.5466 27L56.4666 35.0049C62.34 35.8788 66.6733 38.4337 68.6533 41.1553L63.4866 48.9068C60.82 46.9055 57.4866 45.2245 53.5933 45.2245C48.26 45.2245 45.8133 47.119 45.8133 49.6739C45.8133 53.6096 53.44 57.3119 59.04 59.9268C66.3066 63.3489 69.76 69.4527 69.76 75.5898Z" fill="#11B10D"/>
</svg>
