<?xml version="1.0" encoding="UTF-8"?>
<!DOCTYPE svg PUBLIC "-//W3C//DTD SVG 1.1//EN" "http://www.w3.org/Graphics/SVG/1.1/DTD/svg11.dtd">
<svg xmlns="http://www.w3.org/2000/svg" version="1.1" width="261px" height="457px" style="shape-rendering:geometricPrecision; text-rendering:geometricPrecision; image-rendering:optimizeQuality; fill-rule:evenodd; clip-rule:evenodd" xmlns:xlink="http://www.w3.org/1999/xlink">
<g><path style="opacity:0.982" fill="#46b813" d="M 260.5,222.5 C 260.5,226.167 260.5,229.833 260.5,233.5C 259.192,238.456 257.025,243.123 254,247.5C 187.5,314.667 121,381.833 54.5,449C 49.5737,452.576 44.2403,455.076 38.5,456.5C 34.8333,456.5 31.1667,456.5 27.5,456.5C 6.54964,450.293 -1.95036,436.293 2,414.5C 3.05874,411.382 4.39207,408.382 6,405.5C 64.6809,346.319 123.181,286.986 181.5,227.5C 123.513,169.68 65.3464,112.013 7,54.5C 3.39389,49.9546 0.893892,44.9546 -0.5,39.5C -0.5,34.8333 -0.5,30.1667 -0.5,25.5C 5.6715,6.73566 18.6715,-1.43101 38.5,1C 42.7193,2.10871 46.7193,3.77537 50.5,6C 118.333,73.1667 186.167,140.333 254,207.5C 257.26,212.142 259.427,217.142 260.5,222.5 Z"/></g>
</svg>
