<?xml version="1.0" encoding="UTF-8"?>
<!DOCTYPE svg PUBLIC "-//W3C//DTD SVG 1.1//EN" "http://www.w3.org/Graphics/SVG/1.1/DTD/svg11.dtd">
<svg xmlns="http://www.w3.org/2000/svg" version="1.1" width="261px" height="457px" style="shape-rendering:geometricPrecision; text-rendering:geometricPrecision; image-rendering:optimizeQuality; fill-rule:evenodd; clip-rule:evenodd" xmlns:xlink="http://www.w3.org/1999/xlink">
<g><path style="opacity:0.982" fill="#46b813" d="M 260.5,25.5 C 260.5,30.1667 260.5,34.8333 260.5,39.5C 259.106,44.9546 256.606,49.9546 253,54.5C 194.654,112.013 136.487,169.68 78.5,227.5C 136.819,286.986 195.319,346.319 254,405.5C 262.307,420.736 260.807,434.903 249.5,448C 244.288,451.939 238.621,454.773 232.5,456.5C 228.833,456.5 225.167,456.5 221.5,456.5C 215.76,455.076 210.426,452.576 205.5,449C 139,381.833 72.5,314.667 6,247.5C 2.97481,243.123 0.80814,238.456 -0.5,233.5C -0.5,229.833 -0.5,226.167 -0.5,222.5C 0.573216,217.142 2.73988,212.142 6,207.5C 73.8333,140.333 141.667,73.1667 209.5,6C 226.676,-3.33675 241.843,-0.836748 255,13.5C 257.162,17.4813 258.995,21.4813 260.5,25.5 Z"/></g>
</svg>
