<svg id="Слой_1" data-name="Слой 1" xmlns="http://www.w3.org/2000/svg" xmlns:xlink="http://www.w3.org/1999/xlink" viewBox="40 60 90 90"><defs><style>.cls-1{fill-rule:evenodd;fill:url(#linear-gradient);}</style><linearGradient id="linear-gradient" x1="75" y1="64.99" x2="75" y2="151.07" gradientUnits="userSpaceOnUse"><stop offset="0" stop-color="#00c832"/><stop offset="1"/></linearGradient></defs><title>Монтажная область 29</title><path class="cls-1" d="M92.34,127.89c-4.69-6.73-14-20-14-20l20-14c14.91-10.4,29.28,9.15,13.84,19.92C121.11,126.57,101,140.29,92.34,127.89Zm-16.7-24.06-14-20C53,71.38,72.83,57.24,81.74,70c15.44-10.77,28.82,9.47,13.91,19.87Zm-24,16.67c-14.91,10.4-29.28-9.15-13.84-19.92C28.89,87.81,49,74.09,57.65,86.5l14,20ZM76,111.38c-3.52,12.42-2,23.94,2.27,37.24L67.8,151.07c-2-11.78-2.26-28.74,5.08-40.28Z"/></svg>