<!-- svg -->
		<svg display="none" xmlns="http://www.w3.org/2000/svg">
			<symbol id="application" viewBox="75 60 70 90">
				<g>
					<path d="M106.3,138.05c.08,6.11-3.29,8.89-10.56,9.17-16.56.66-35.57-.1-41.76-.28-7.44-.22-10.79-4.29-10.7-10.74s1.2-66.39,1.2-66.39,25.86-.51,41.35-.72c3.89,0,8.28,1.88,8.53,8,.39,9.42.41,44.35.55,52.4.08,4.41-2.51,7.72-8.11,7.85-11.68.28-28.48-.24-37.38-.57.64,3,2.59,4.19,6.82,4.19,5.78,0,44-.12,44-.12l.4-55.45-2.24-4.51.2-4.89a7.06,7.06,0,0,0,1.13.25c3.48.4,6.59,2.14,6.85,8.3C107,94,106.18,128.9,106.3,138.05ZM83.94,101.47l0-5.64-29.68-.17,0,5.64ZM74.19,88.94l0-5.64-19.46-.39-.94,5.77Z"/>
				</g>
			</symbol>
			<symbol id="truck" viewBox="20 70 120 80">
				<g>
					<path class="cls-1" d="M107.15,96.37l2.94,13.44,19.06,1.53.06,21.12-10.37,3.78c-.53-7.31-5.55-14.4-15.09-14.4-9.84,0-15.08,7.85-14.92,15.56H65.29c0-5.57-2.69-11.19-7.93-13.9l29.58-.73.64-35.28,28.1.67L120.27,96ZM23,86.29c-.13-4.18.69-8.89,8.46-8.53s36.6.29,42,.29S82,81,82,88.46c0,11.15.34,30.89.34,30.89l-58.51-.84S23.37,98.49,23,86.29Zm19.33,37.59a14.87,14.87,0,0,0-6.94,10.81l-12.91-2.52,1.3-7.83Zm7.86,1.72c14.76,0,15.13,22.73,1,22.73C34.49,148.33,35.72,125.6,50.2,125.6Zm.47,16.11c5.88,0,5.72-9.48-.43-9.48S43.7,141.71,50.67,141.71Zm53.12-16.11c14.76,0,15.14,22.73,1,22.73C88.08,148.33,89.31,125.6,103.79,125.6Zm.47,16.11c5.88,0,5.73-9.48-.42-9.48S97.29,141.71,104.26,141.71Z"/>
				</g>
			</symbol>
			<symbol id="folders" viewBox="30 70 105 80">
				<g>
					<path class="cls-1" d="M134.75,132.53l-17,2.55c0,1.09,0,2.14,0,3.13,0,5.25-3.15,7.83-6.85,7.88-19.13.26-54.06,1.39-71.13,1.39-4.29,0-6.74-2.79-6.74-7.78,0-7.25-.75-59.33-.75-59.33l31-.74,3.55,5.25L125.22,76ZM70,89.6l1.33,2,45.88-.15s.36,21.8.47,38.34l10.5-1.49-7.63-46.39Z"/>
				</g>
			</symbol>
			<symbol id="hammer" viewBox="70 60 60 90">
				<g>
					<path class="cls-1" d="M95.18,84.39l-4.33-5-4.3,4.85-40.16-.47L58.77,61.87l27.48-.69,4.8,5.28,4.71-5.52,7.85-.2-.69,23.75Zm-9.93,5.74,1.19,51c0,11.19-17.16,10.63-17.1.44l1.43-52.31Z"/>
				</g>
			</symbol>
			<symbol id="clover" viewBox="40 60 90 90">
				<g>
					<path class="cls-1" d="M92.34,127.89c-4.69-6.73-14-20-14-20l20-14c14.91-10.4,29.28,9.15,13.84,19.92C121.11,126.57,101,140.29,92.34,127.89Zm-16.7-24.06-14-20C53,71.38,72.83,57.24,81.74,70c15.44-10.77,28.82,9.47,13.91,19.87Zm-24,16.67c-14.91,10.4-29.28-9.15-13.84-19.92C28.89,87.81,49,74.09,57.65,86.5l14,20ZM76,111.38c-3.52,12.42-2,23.94,2.27,37.24L67.8,151.07c-2-11.78-2.26-28.74,5.08-40.28Z"/>
				</g>
			</symbol>
			<!-- all inclusive -->
			<symbol id="1" viewBox="0 0 64 64">
				<g>
					<path d="M32,2C15.432,2,2,15.432,2,32c0,16.568,13.432,30,30,30s30-13.432,30-30C62,15.432,48.568,2,32,2z M38,48h-6.107V24.979
					c-2.232,2.086-4.863,3.629-7.893,4.629v-5.543c1.594-0.521,3.326-1.512,5.195-2.967c1.871-1.455,3.152-3.156,3.848-5.098H38V48z"/>
				</g>
			</symbol>
			<symbol id="2" viewBox="0 0 64 64">
				<g>
					<path d="m32 2c-16.568 0-30 13.432-30 30s13.432 30 30 30 30-13.432 30-30-13.432-30-30-30m10 40.326v5.674h-20c.216-2.146.865-4.178 1.949-6.098 1.083-1.922 3.221-4.467 6.416-7.643 2.571-2.564 4.148-4.303 4.731-5.217.784-1.26 1.177-2.508 1.177-3.738 0-1.363-.342-2.41-1.025-3.143s-1.627-1.098-2.832-1.098c-1.191 0-2.14.385-2.843 1.152-.704.768-1.11 2.045-1.218 3.826l-5.686-.609c.338-3.361 1.401-5.773 3.188-7.238 1.788-1.462 4.021-2.194 6.702-2.194 2.936 0 5.246.848 6.924 2.543s2.517 3.805 2.517 6.326c0 1.434-.24 2.801-.721 4.098-.48 1.299-1.242 2.656-2.284 4.076-.691.941-1.937 2.297-3.737 4.064-1.799 1.77-2.94 2.943-3.42 3.523-.48.578-.871 1.145-1.168 1.695h11.33z"/>
				</g>
			</symbol>
			<symbol id="3" viewBox="0 0 64 64">
				<g>
					<path d="m32 2c-16.568 0-30 13.432-30 30s13.432 30 30 30 30-13.432 30-30-13.432-30-30-30m7.105 43.092c-1.931 1.937-4.334 2.908-7.208 2.908-2.724 0-4.983-.816-6.776-2.447-1.793-1.633-2.833-3.768-3.121-6.403l5.585-.707c.179 1.482.657 2.617 1.438 3.4s1.725 1.176 2.834 1.176c1.19 0 2.193-.471 3.009-1.41.814-.941 1.223-2.209 1.223-3.807 0-1.51-.391-2.707-1.172-3.59-.781-.885-1.731-1.324-2.854-1.324-.74 0-1.623.148-2.65.447l.637-4.895c1.561.043 2.752-.311 3.573-1.059s1.232-1.742 1.232-2.982c0-1.055-.301-1.896-.903-2.521-.603-.627-1.404-.941-2.403-.941-.985 0-1.827.355-2.525 1.068s-1.122 1.752-1.273 3.121l-5.317-.939c.369-1.896.928-3.41 1.674-4.543.745-1.133 1.785-2.023 3.121-2.672 1.332-.648 2.828-.972 4.484-.972 2.833 0 5.106.939 6.816 2.822 1.41 1.539 2.115 3.275 2.115 5.215 0 2.75-1.444 4.945-4.332 6.584 1.725.385 3.104 1.246 4.138 2.586 1.033 1.34 1.55 2.957 1.55 4.854 0 2.75-.965 5.093-2.895 7.031"/>
				</g>
			</symbol>
			<symbol id="4" viewBox="0 0 64 64">
				<g>
					<path d="m33.662 36.217v-10.891l-7.674 10.891z"/><path d="M32,2C15.432,2,2,15.432,2,32s13.432,30,30,30s30-13.432,30-30S48.568,2,32,2z M44,41.586h-4.145V48h-6.193v-6.414H20
					v-5.348L34.48,16h5.375v20.217H44V41.586z"/>
				</g>
			</symbol>
			<symbol id="5" viewBox="0 0 64 64">
				<g>
					<path d="m32 2c-16.568 0-30 13.432-30 30s13.432 30 30 30 30-13.432 30-30-13.432-30-30-30m7.871 41.779c-1.934 2.813-4.619 4.221-8.053 4.221-2.746 0-4.984-.791-6.715-2.371-1.73-1.582-2.766-3.707-3.104-6.375l5.68-.631c.162 1.379.643 2.469 1.44 3.273.798.807 1.717 1.209 2.759 1.209 1.189 0 2.197-.52 3.021-1.557.825-1.035 1.237-2.598 1.237-4.688 0-1.957-.409-3.426-1.228-4.404-.817-.979-1.883-1.469-3.193-1.469-1.637 0-3.104.777-4.402 2.328l-4.625-.719 2.923-16.596h15.07v5.721h-10.75l-.893 5.418c1.271-.682 2.568-1.023 3.895-1.023 2.527 0 4.672.986 6.43 2.959 1.758 1.97 2.637 4.53 2.637 7.679 0 2.623-.71 4.967-2.129 7.025"/>
				</g>
			</symbol>
			<symbol id="6" viewBox="0 0 64 64">
				<g>
					<path d="m32.379 31.541c-1.104 0-2.037.451-2.799 1.355-.764.904-1.145 2.242-1.145 4.008 0 1.953.43 3.459 1.287 4.521s1.838 1.594 2.941 1.594c1.063 0 1.947-.436 2.656-1.305.707-.869 1.063-2.295 1.063-4.275 0-2.039-.381-3.529-1.145-4.479-.762-.944-1.714-1.419-2.858-1.419"/><path d="m32 2c-16.568 0-30 13.432-30 30s13.432 30 30 30 30-13.432 30-30-13.432-30-30-30m7.305 43.092c-1.799 1.937-4.108 2.908-6.926 2.908-3.023 0-5.51-1.23-7.457-3.688s-2.922-6.486-2.922-12.087c0-5.744 1.016-9.885 3.045-12.42 2.029-2.537 4.664-3.805 7.906-3.805 2.273 0 4.156.666 5.648 1.998 1.49 1.334 2.441 3.27 2.85 5.803l-5.557.643c-.137-1.197-.49-2.082-1.063-2.65-.572-.57-1.314-.855-2.227-.855-1.213 0-2.238.57-3.074 1.709-.838 1.141-1.365 3.514-1.584 7.121 1.43-1.77 3.207-2.654 5.332-2.654 2.396 0 4.451.957 6.158 2.867 1.712 1.909 2.566 4.373 2.566 7.393 0 3.207-.898 5.779-2.695 7.717"/>
				</g>
			</symbol>
			<symbol id="7" viewBox="0 0 64 64">
				<g>
					<path d="M31.999,2c-16.568,0-30,13.432-30,30s13.432,30,30,30C48.568,62,62,48.568,62,32S48.568,2,31.999,2z M43,20.514
					c-1.651,1.727-3.33,4.205-5.036,7.436c-1.707,3.23-3.008,6.666-3.903,10.303c-0.895,3.637-1.335,6.887-1.321,9.748h-5.641
					c0.098-4.484,0.969-9.059,2.613-13.721c1.643-4.662,3.84-8.83,6.586-12.504H22.999V16H43V20.514z"/>
				</g>
			</symbol>
			<symbol id="8" viewBox="0 0 64 64">
				<g>
					<path d="m31.979 33.109c-1.425 0-2.487.506-3.185 1.518-.698 1.012-1.048 2.107-1.048 3.291 0 1.652.412 2.939 1.235 3.865.822.924 1.85 1.389 3.08 1.389 1.203 0 2.198-.445 2.987-1.336.788-.889 1.182-2.174 1.182-3.855 0-1.465-.399-2.646-1.202-3.533-.801-.893-1.818-1.339-3.049-1.339"/><path d="m31.896 28.303c1.108 0 1.992-.338 2.655-1.014.664-.676.996-1.613.996-2.809 0-1.125-.328-2.025-.984-2.703-.658-.676-1.525-1.014-2.604-1.014-1.12 0-2.013.342-2.676 1.025-.664.684-.996 1.588-.996 2.713 0 1.197.328 2.129.986 2.797.656.671 1.53 1.005 2.623 1.005"/><path d="m32 2c-16.568 0-30 13.432-30 30s13.432 30 30 30 30-13.432 30-30-13.432-30-30-30m7.314 43.287c-1.793 1.809-4.175 2.713-7.148 2.713-2.767 0-5.069-.748-6.909-2.242-2.171-1.768-3.257-4.188-3.257-7.266 0-1.693.408-3.25 1.224-4.664.817-1.42 2.104-2.512 3.86-3.281-1.509-.654-2.604-1.557-3.289-2.703-.686-1.145-1.026-2.402-1.026-3.768 0-2.338.791-4.268 2.374-5.791 1.584-1.523 3.836-2.285 6.753-2.285 2.891 0 5.136.762 6.733 2.285s2.396 3.453 2.396 5.791c0 1.451-.366 2.744-1.101 3.877-.732 1.129-1.763 1.996-3.091 2.594 1.688.697 2.971 1.717 3.849 3.055.879 1.339 1.318 2.882 1.318 4.634 0 2.893-.896 5.243-2.686 7.051"/>
					</g>
				</symbol>
			</svg>