<svg width="64" height="59" viewBox="0 0 64 59" fill="none" xmlns="http://www.w3.org/2000/svg">
<path fill-rule="evenodd" clip-rule="evenodd" d="M1.5333 50.4333L7.45997 50.3067L8.12664 29.4333L4.19997 24.94L20 25.08L17.28 29.4333L19.2133 50.06L26.5466 49.9067L27.7866 29.4333L24.08 25.1133L40.22 25.2533L36.9733 29.4333L38.6666 49.6467L46.8733 49.4733L47.48 29.4333L43.9266 25.2867L59.5333 25.4267L56.6666 29.4267L58.4133 49.2267L63.8866 49.1133V57.64L2.85331 58.3067L1.5333 50.4333ZM1.5333 22.2133L0.866638 18.28L31.0666 0.559998L63.22 16.9667L62.5533 21.56L1.5333 22.2133ZM31.3333 8.43333C25.86 8.43333 25.3933 16.9667 31.72 16.9667C37.0733 16.9667 36.9333 8.43333 31.3333 8.43333Z" fill="#505050"/>
</svg>
