<?xml version="1.0" standalone="no"?>
<!DOCTYPE svg PUBLIC "-//W3C//DTD SVG 20010904//EN"
 "http://www.w3.org/TR/2001/REC-SVG-20010904/DTD/svg10.dtd">
<svg version="1.0" xmlns="http://www.w3.org/2000/svg"
 width="2400.000000pt" height="3000.000000pt" viewBox="0 0 2400.000000 3000.000000"
 preserveAspectRatio="xMidYMid meet">

<g class="dollarColor" transform="translate(0.000000,3000.000000) scale(0.100000,-0.100000)"
fill="" stroke="none">
<path d="M11038 29983 c24 -10 14 -70 -18 -101 -25 -26 -30 -38 -30 -79 0 -26
4 -63 10 -82 6 -20 10 -550 10 -1380 l2 -1346 -23 -60 c-29 -77 -140 -193
-222 -230 -57 -26 -55 -26 -562 -65 -178 -14 -261 -32 -439 -95 -183 -65 -243
-80 -403 -100 -175 -22 -251 -48 -361 -122 -46 -31 -143 -61 -237 -74 -89 -12
-155 -38 -242 -97 -79 -53 -109 -68 -170 -81 -86 -18 -172 -58 -227 -104 -62
-54 -113 -80 -186 -97 -81 -19 -133 -46 -198 -104 -40 -36 -84 -63 -139 -85
-59 -23 -100 -49 -150 -93 -41 -36 -100 -75 -148 -97 -62 -30 -94 -53 -142
-104 -34 -37 -84 -77 -110 -91 -26 -13 -73 -50 -103 -81 -30 -31 -89 -81 -130
-110 -71 -50 -379 -350 -417 -405 -9 -14 -45 -55 -80 -91 -35 -36 -86 -99
-112 -140 -28 -42 -68 -88 -93 -106 -30 -21 -65 -64 -103 -125 -33 -51 -78
-119 -102 -151 -23 -32 -60 -97 -83 -144 -30 -64 -55 -101 -99 -142 -53 -51
-61 -65 -96 -166 -41 -115 -67 -167 -105 -200 -30 -27 -51 -72 -88 -190 -22
-70 -47 -122 -82 -174 -53 -79 -59 -95 -96 -268 -29 -139 -75 -266 -112 -313
-16 -19 -34 -45 -40 -56 -16 -31 -42 -186 -42 -253 0 -84 -27 -222 -61 -309
-48 -125 -78 -246 -113 -462 -3 -19 -10 -165 -16 -325 -5 -159 -14 -321 -20
-360 -5 -40 -9 -403 -10 -856 0 -624 3 -806 14 -885 8 -54 17 -227 21 -384 3
-157 11 -305 16 -330 5 -25 25 -76 44 -115 53 -110 93 -227 116 -343 31 -159
43 -194 93 -267 54 -80 96 -166 124 -260 15 -49 36 -88 70 -130 26 -33 68 -94
92 -135 25 -41 70 -100 101 -130 30 -30 77 -84 102 -120 26 -36 62 -76 81 -90
18 -14 59 -56 91 -94 32 -37 75 -80 95 -95 21 -15 62 -56 91 -92 29 -35 65
-73 79 -83 14 -11 66 -62 115 -113 50 -51 96 -93 104 -93 7 0 49 -35 94 -78
45 -43 100 -89 122 -102 22 -13 74 -53 115 -88 41 -35 105 -79 141 -98 37 -20
98 -64 137 -98 43 -40 88 -70 118 -81 105 -37 132 -51 208 -112 50 -39 111
-76 163 -97 48 -20 112 -58 151 -89 59 -47 130 -85 241 -128 19 -7 62 -35 95
-62 77 -62 95 -71 200 -101 104 -31 113 -35 199 -102 67 -53 81 -58 259 -109
35 -9 93 -40 145 -75 84 -58 122 -73 298 -125 33 -10 89 -35 125 -57 95 -57
178 -96 235 -109 124 -29 158 -42 222 -85 113 -76 113 -76 333 -125 64 -14 98
-29 162 -75 85 -60 143 -83 250 -100 108 -17 183 -44 284 -105 71 -43 147 -68
298 -98 111 -22 170 -47 264 -108 63 -42 110 -57 262 -83 158 -27 229 -52 315
-109 62 -42 156 -72 275 -86 136 -17 230 -44 324 -95 112 -60 190 -84 306 -94
168 -15 261 -43 389 -120 75 -45 138 -63 246 -71 159 -12 238 -33 387 -104
110 -52 210 -78 357 -92 64 -6 138 -15 166 -20 58 -11 165 -59 212 -95 45 -34
128 -70 183 -79 67 -10 138 -46 206 -102 64 -54 114 -82 179 -103 47 -15 87
-41 135 -87 34 -34 172 -123 189 -123 5 0 42 -31 82 -68 41 -38 98 -85 126
-105 29 -19 142 -126 252 -236 109 -111 204 -201 210 -201 6 0 35 -35 65 -77
30 -43 81 -101 113 -129 57 -50 61 -56 97 -165 49 -147 58 -166 106 -230 81
-108 99 -236 100 -710 0 -323 -14 -611 -36 -724 -17 -84 -63 -205 -100 -265
-30 -48 -40 -85 -64 -235 -22 -139 -52 -218 -129 -340 -21 -33 -54 -89 -74
-125 -20 -36 -53 -81 -73 -100 -59 -55 -125 -123 -177 -184 -27 -31 -53 -56
-58 -56 -15 0 -89 -50 -149 -101 -81 -68 -129 -97 -185 -110 -104 -25 -165
-48 -222 -86 -32 -22 -74 -47 -93 -56 -59 -27 -180 -55 -280 -66 -103 -12
-163 -28 -337 -90 -209 -75 -383 -98 -798 -107 -251 -6 -289 -9 -370 -31 -213
-56 -186 -54 -680 -51 -442 3 -463 4 -525 25 -112 38 -231 51 -515 57 -549 11
-706 30 -885 107 -136 58 -212 75 -397 89 -193 16 -258 32 -413 105 -123 58
-148 66 -285 90 -176 32 -251 57 -338 114 -58 37 -122 60 -284 101 -22 6 -70
30 -105 55 -92 65 -131 85 -245 121 -85 26 -116 43 -184 94 -45 33 -123 80
-173 104 -63 29 -113 62 -159 103 -37 34 -97 76 -133 94 -47 24 -83 52 -118
92 -30 34 -77 73 -113 93 -45 26 -121 94 -280 253 -120 120 -237 240 -260 268
-73 87 -135 79 -221 -30 -36 -45 -67 -73 -100 -88 -42 -20 -124 -94 -257 -233
-22 -22 -66 -66 -98 -96 -33 -30 -96 -92 -141 -136 -44 -45 -110 -101 -146
-124 -40 -26 -157 -135 -305 -284 -183 -184 -257 -251 -310 -283 -50 -29 -116
-88 -232 -205 -89 -89 -168 -170 -175 -179 -31 -37 -187 -169 -236 -199 -29
-17 -77 -61 -108 -97 -30 -36 -76 -82 -103 -103 -27 -21 -69 -65 -94 -97 -25
-32 -70 -76 -99 -97 -29 -21 -78 -66 -108 -98 -30 -33 -70 -68 -90 -78 -20
-10 -54 -37 -75 -61 -22 -23 -59 -61 -83 -83 -127 -121 -152 -149 -167 -191
-15 -38 -16 -52 -6 -92 23 -91 87 -206 151 -267 33 -32 69 -74 82 -94 32 -55
67 -95 98 -114 16 -9 54 -49 85 -88 32 -40 77 -86 101 -103 23 -16 65 -58 92
-92 28 -34 67 -70 87 -79 20 -10 68 -49 106 -87 39 -39 96 -86 127 -106 31
-20 81 -58 111 -85 29 -27 88 -68 129 -90 42 -23 106 -69 142 -102 59 -54 146
-106 178 -106 24 0 86 -38 156 -93 41 -33 104 -70 154 -91 46 -20 112 -58 147
-86 69 -55 122 -82 206 -103 83 -22 119 -40 188 -96 74 -60 102 -73 208 -96
105 -24 144 -40 232 -98 101 -67 142 -84 238 -97 109 -15 179 -40 255 -91 82
-56 166 -86 293 -104 118 -16 175 -36 276 -94 89 -51 171 -79 274 -92 235 -31
262 -38 405 -111 l135 -69 155 -15 c209 -19 326 -45 472 -105 150 -62 212 -74
471 -94 111 -9 229 -20 262 -26 87 -14 375 -86 480 -119 50 -15 133 -33 185
-39 169 -21 219 -45 258 -123 l23 -46 -1 -1639 c0 -978 -5 -1654 -10 -1678 -5
-22 -10 -50 -10 -62 l0 -23 1241 0 1241 0 -7 32 c-10 43 -22 3118 -13 3183 16
107 86 188 191 221 31 9 103 18 177 21 124 5 166 12 225 38 42 19 146 35 230
35 39 0 115 7 170 14 55 8 163 17 240 21 174 8 270 27 354 70 74 37 192 81
256 95 23 5 100 16 171 25 170 21 216 35 308 95 84 55 162 85 246 95 95 12
154 34 244 91 102 65 155 89 216 99 93 15 165 46 240 104 49 38 102 68 148 85
102 36 138 56 214 119 48 39 87 61 135 77 91 29 107 39 195 112 48 39 100 72
139 87 46 18 79 40 128 88 48 47 89 76 148 104 51 24 111 63 155 102 40 35 98
81 128 104 30 22 73 57 95 77 22 21 72 58 110 83 39 25 103 79 143 119 40 41
79 74 86 74 8 0 38 25 67 57 106 111 126 128 188 163 88 49 722 683 791 793
26 40 70 93 97 117 28 25 71 77 95 115 25 39 67 89 94 111 36 31 63 68 103
143 29 56 75 127 102 158 30 34 59 82 76 126 22 57 42 86 95 140 69 70 86 103
123 235 13 44 30 77 59 110 63 71 76 96 113 216 23 75 43 122 64 146 82 96 99
134 124 285 19 109 66 232 113 293 43 57 59 102 72 210 27 217 33 251 55 317
13 38 43 120 68 180 54 129 64 184 72 405 4 91 11 194 16 230 6 36 14 151 18
255 7 153 15 213 37 310 l29 120 0 435 0 435 -29 115 c-23 95 -30 148 -37 305
-4 105 -12 222 -18 260 -5 39 -12 147 -16 240 -8 211 -20 269 -83 421 -58 138
-73 192 -102 363 -28 171 -45 226 -94 301 -51 78 -79 154 -101 275 -24 126
-47 180 -110 259 -30 38 -59 85 -64 105 -5 20 -15 56 -21 81 -18 66 -53 129
-106 185 -50 54 -75 97 -94 161 -7 23 -36 71 -66 108 -29 36 -74 107 -100 157
-36 69 -60 101 -105 141 -33 28 -79 83 -104 124 -25 40 -60 82 -78 93 -18 11
-56 49 -85 85 -29 36 -77 84 -107 106 -30 22 -55 45 -55 51 0 20 -285 292
-326 310 -25 11 -65 46 -100 85 -47 54 -73 74 -132 101 -44 20 -101 57 -141
92 -36 32 -102 78 -146 101 -44 23 -105 65 -135 94 -61 59 -98 81 -171 102
-32 10 -79 39 -133 83 -82 65 -124 88 -213 111 -23 6 -61 26 -85 45 -144 116
-174 132 -282 150 -50 8 -125 46 -191 96 -64 48 -127 76 -202 90 -63 12 -130
43 -201 93 -71 51 -99 62 -218 91 -122 30 -160 47 -245 110 -70 51 -119 69
-253 90 -114 18 -152 33 -258 102 -81 53 -134 71 -298 97 -133 21 -184 39
-270 91 -87 52 -159 77 -291 99 -132 23 -189 40 -309 96 -118 54 -222 85 -326
95 -175 16 -233 33 -372 107 l-133 70 -137 14 c-232 23 -302 41 -422 109 -93
53 -151 70 -306 89 -166 20 -225 37 -335 97 -125 68 -153 77 -290 95 -146 18
-227 42 -309 94 -101 63 -159 87 -235 94 -175 18 -276 51 -401 132 -61 40
-100 52 -244 75 -54 8 -96 24 -155 55 -147 81 -219 112 -285 124 -129 24 -173
42 -255 105 -81 62 -124 82 -225 105 -63 15 -83 26 -165 94 -57 47 -107 74
-205 110 -25 9 -70 40 -99 68 -30 28 -98 79 -151 113 -67 43 -118 87 -170 145
-41 45 -98 107 -127 136 -57 59 -116 155 -153 248 -13 33 -45 87 -70 120 -92
121 -104 193 -98 573 6 315 11 344 89 469 69 113 75 126 100 198 17 49 40 88
84 140 33 39 80 98 105 130 65 86 231 244 292 279 29 16 85 60 123 98 56 54
90 77 166 113 53 24 125 61 160 83 96 58 146 79 234 98 135 29 229 56 260 75
17 10 69 35 118 54 190 79 420 89 1852 83 605 -3 1147 -10 1205 -15 58 -6 174
-15 258 -22 167 -12 224 -27 331 -86 98 -54 134 -64 266 -75 185 -15 243 -34
390 -127 31 -20 84 -40 140 -53 169 -39 192 -48 255 -96 95 -74 109 -82 200
-109 112 -35 146 -53 200 -109 50 -51 92 -77 160 -95 69 -19 114 -45 183 -108
35 -31 93 -71 129 -89 44 -21 83 -51 121 -93 32 -34 88 -80 126 -103 38 -23
87 -64 109 -91 93 -113 168 -116 252 -10 25 31 63 70 86 86 23 16 54 46 70 66
15 21 67 75 115 122 48 47 113 121 145 165 32 44 157 181 280 305 155 158 236
247 269 300 30 49 103 131 205 235 87 88 180 187 208 220 27 33 64 74 82 90
18 17 56 66 85 110 35 52 72 93 107 119 29 21 76 67 103 101 28 35 63 71 79
81 41 28 210 218 262 296 26 40 66 83 98 107 30 22 80 71 112 108 31 37 66 74
78 82 43 29 118 107 137 143 28 56 25 113 -12 178 -43 75 -465 495 -560 556
-38 25 -95 68 -126 95 -32 28 -89 67 -127 86 -40 20 -98 63 -140 102 -49 46
-87 73 -121 85 -84 29 -117 49 -180 105 -66 58 -113 86 -187 107 -27 8 -94 46
-151 84 -71 49 -123 76 -172 90 -98 29 -139 49 -227 113 -64 45 -91 58 -155
72 -128 29 -171 45 -241 92 -105 70 -134 82 -282 113 -164 35 -226 57 -300
106 -87 58 -128 72 -244 84 -125 13 -257 36 -301 52 -16 6 -60 28 -96 49 -118
65 -169 79 -349 95 -311 26 -355 35 -541 113 -124 51 -222 69 -444 81 -99 6
-191 12 -205 15 -14 3 -92 9 -173 15 -92 6 -185 19 -245 34 -110 28 -142 33
-301 46 -131 11 -224 39 -346 103 -69 36 -83 48 -103 89 l-25 48 2 1356 c1
819 6 1366 12 1381 5 13 9 46 9 73 0 39 -5 53 -30 80 -32 34 -42 94 -17 103 6
3 -530 5 -1193 5 -663 0 -1199 -2 -1192 -5z"/>
</g>
</svg>
